{
	"asset":{
		"generator":"Khronos glTF Blender I/O v4.5.48",
		"version":"2.0"
	},
	"extensionsUsed":[
		"KHR_materials_specular"
	],
	"scene":0,
	"scenes":[
		{
			"name":"Scene",
			"nodes":[
				0
			]
		}
	],
	"nodes":[
		{
			"mesh":0,
			"name":"material",
			"rotation":[
				0.70710688829422,
				0,
				0,
				0.7071066498756409
			]
		}
	],
	"materials":[
		{
			"doubleSided":true,
			"extensions":{
				"KHR_materials_specular":{
					"specularColorFactor":[
						2.0,
						2.0,
						2.0
					]
				}
			},
			"name":"Material.001",
			"normalTexture":{
				"index":0
			},
			"pbrMetallicRoughness":{
				"baseColorTexture":{
					"index":1
				},
				"metallicRoughnessTexture":{
					"index":2
				}
			}
		}
	],
	"meshes":[
		{
			"name":"material",
			"primitives":[
				{
					"attributes":{
						"POSITION":0,
						"NORMAL":1,
						"TEXCOORD_0":2
					},
					"indices":3,
					"material":0
				}
			]
		}
	],
	"textures":[
		{
			"sampler":0,
			"source":0
		},
		{
			"sampler":0,
			"source":1
		},
		{
			"sampler":0,
			"source":2
		}
	],
	"images":[
		{
			"mimeType":"image/png",
			"name":"texture_pbr_20250901_normal",
			"uri":"texture_pbr_20250901_normal.png"
		},
		{
			"mimeType":"image/png",
			"name":"texture_pbr_20250901",
			"uri":"texture_pbr_20250901.png"
		},
		{
			"mimeType":"image/png",
			"name":"texture_pbr_20250901_metallic-texture_pbr_20250901_roughness",
			"uri":"texture_pbr_20250901_metallic-texture_pbr_20250901_roughness.png"
		}
	],
	"accessors":[
		{
			"bufferView":0,
			"componentType":5126,
			"count":30982,
			"max":[
				0.42980700731277466,
				0.32629698514938354,
				0.5350170135498047
			],
			"min":[
				-0.42980700731277466,
				-0.3240489959716797,
				-0.5356259942054749
			],
			"type":"VEC3"
		},
		{
			"bufferView":1,
			"componentType":5126,
			"count":30982,
			"type":"VEC3"
		},
		{
			"bufferView":2,
			"componentType":5126,
			"count":30982,
			"type":"VEC2"
		},
		{
			"bufferView":3,
			"componentType":5123,
			"count":150000,
			"type":"SCALAR"
		}
	],
	"bufferViews":[
		{
			"buffer":0,
			"byteLength":371784,
			"byteOffset":0,
			"target":34962
		},
		{
			"buffer":0,
			"byteLength":371784,
			"byteOffset":371784,
			"target":34962
		},
		{
			"buffer":0,
			"byteLength":247856,
			"byteOffset":743568,
			"target":34962
		},
		{
			"buffer":0,
			"byteLength":300000,
			"byteOffset":991424,
			"target":34963
		}
	],
	"samplers":[
		{
			"magFilter":9729,
			"minFilter":9987
		}
	],
	"buffers":[
		{
			"byteLength":1291424,
			"uri":"dddd.bin"
		}
	]
}
