{
	"asset":{
		"generator":"Khronos glTF Blender I/O v4.2.60",
		"version":"2.0"
	},
	"scene":0,
	"scenes":[
		{
			"name":"Scene",
			"nodes":[
				0,
				6
			]
		}
	],
	"nodes":[
		{
			"mesh":0,
			"name":"Cloud_Character_v1_001",
			"rotation":[
				0.7071068286895752,
				0,
				0,
				0.7071068286895752
			],
			"scale":[
				0.8089786767959595,
				0.8089786767959595,
				0.8089786767959595
			],
			"translation":[
				0,
				-3.9978671073913574,
				0
			]
		},
		{
			"name":"Cam_Light_Set1:Cam_Light_Set:VRayDomeLight_1",
			"translation":[
				-22.50258445739746,
				-7.910168647766113,
				0
			]
		},
		{
			"name":"Cam_Light_Set1:Cam_Light_Set:VRayLight_1",
			"rotation":[
				-0.3596053719520569,
				-0.07275523990392685,
				0.1844729781150818,
				0.9117896556854248
			],
			"scale":[
				6.692241191864014,
				2.28208589553833,
				6.165895938873291
			],
			"translation":[
				-5.058539390563965,
				14.577075004577637,
				-16.58395004272461
			]
		},
		{
			"name":"Cam_Light_Set1:Cam_Light_Set:VRayLight_2",
			"rotation":[
				0,
				0,
				-0.7071068286895752,
				0.7071068286895752
			],
			"scale":[
				4.892770290374756,
				2.28208589553833,
				7.526198387145996
			],
			"translation":[
				21.068286895751953,
				0.0007496540783904493,
				-8.532999038696289
			]
		},
		{
			"name":"Cam_Light_Set1:Cam_Light_Set:VRayLight_3",
			"rotation":[
				0,
				0,
				0.9142096042633057,
				0.4052416980266571
			],
			"scale":[
				4.892770290374756,
				2.28208589553833,
				7.526198387145996
			],
			"translation":[
				-19.187910079956055,
				-11.8189697265625,
				-8.532999038696289
			]
		},
		{
			"name":"Cam_Light_Set1:Cam_Light_Set:VRayLight_4",
			"rotation":[
				-0.2269934117794037,
				0.10378967970609665,
				-0.402669221162796,
				0.8806583881378174
			],
			"scale":[
				6.6922407150268555,
				2.282086133956909,
				6.165894985198975
			],
			"translation":[
				16.556734085083008,
				14.011453628540039,
				-16.58395004272461
			]
		},
		{
			"children":[
				1,
				2,
				3,
				4,
				5
			],
			"name":"Cam_Light_Set1:Light",
			"rotation":[
				0.7071068286895752,
				0,
				0,
				0.7071068286895752
			],
			"scale":[
				0.16706351935863495,
				0.16706351935863495,
				0.16706351935863495
			]
		}
	],
	"materials":[
		{
			"doubleSided":true,
			"name":"Cloud_Character_v1_001_Tex"
		}
	],
	"meshes":[
		{
			"name":"Mesh",
			"primitives":[
				{
					"attributes":{
						"POSITION":0,
						"NORMAL":1,
						"TEXCOORD_0":2
					},
					"indices":3,
					"material":0
				}
			]
		}
	],
	"accessors":[
		{
			"bufferView":0,
			"componentType":5126,
			"count":4272,
			"max":[
				4.8524065017700195,
				2.243682384490967,
				-5.030839443206787
			],
			"min":[
				-5.0121355056762695,
				-2.1316747665405273,
				-11.558103561401367
			],
			"type":"VEC3"
		},
		{
			"bufferView":1,
			"componentType":5126,
			"count":4272,
			"type":"VEC3"
		},
		{
			"bufferView":2,
			"componentType":5126,
			"count":4272,
			"type":"VEC2"
		},
		{
			"bufferView":3,
			"componentType":5123,
			"count":23412,
			"type":"SCALAR"
		}
	],
	"bufferViews":[
		{
			"buffer":0,
			"byteLength":51264,
			"byteOffset":0,
			"target":34962
		},
		{
			"buffer":0,
			"byteLength":51264,
			"byteOffset":51264,
			"target":34962
		},
		{
			"buffer":0,
			"byteLength":34176,
			"byteOffset":102528,
			"target":34962
		},
		{
			"buffer":0,
			"byteLength":46824,
			"byteOffset":136704,
			"target":34963
		}
	],
	"buffers":[
		{
			"byteLength":183528,
			"uri":"my-model.bin"
		}
	]
}
