{
	"asset":{
		"generator":"Khronos glTF Blender I/O v4.2.60",
		"version":"2.0"
	},
	"extensionsUsed":[
		"KHR_materials_transmission",
		"KHR_materials_specular"
	],
	"scene":0,
	"scenes":[
		{
			"name":"Scene",
			"nodes":[
				0
			]
		}
	],
	"nodes":[
		{
			"mesh":0,
			"name":"Abstract_Coil_Shape_v1_002",
			"rotation":[
				0.70710688829422,
				0,
				0,
				0.7071066498756409
			],
			"translation":[
				0,
				-8.14116382598877,
				0
			]
		}
	],
	"materials":[
		{
			"doubleSided":true,
			"extensions":{
				"KHR_materials_transmission":{
					"transmissionFactor":1
				},
				"KHR_materials_specular":{
					"specularFactor":0
				}
			},
			"name":"VRayMtl1SG",
			"pbrMetallicRoughness":{
				"baseColorFactor":[
					0,
					0,
					0,
					1
				],
				"metallicFactor":0
			}
		}
	],
	"meshes":[
		{
			"name":"Abstract_Coil_Shape_v1_002",
			"primitives":[
				{
					"attributes":{
						"POSITION":0,
						"NORMAL":1,
						"TEXCOORD_0":2
					},
					"indices":3,
					"material":0
				}
			]
		}
	],
	"accessors":[
		{
			"bufferView":0,
			"componentType":5126,
			"count":9260,
			"max":[
				6.439667224884033,
				2.7568159103393555,
				-2.3691840171813965
			],
			"min":[
				-6.45989990234375,
				-2.7569239139556885,
				-14.930357933044434
			],
			"type":"VEC3"
		},
		{
			"bufferView":1,
			"componentType":5126,
			"count":9260,
			"type":"VEC3"
		},
		{
			"bufferView":2,
			"componentType":5126,
			"count":9260,
			"type":"VEC2"
		},
		{
			"bufferView":3,
			"componentType":5123,
			"count":40290,
			"type":"SCALAR"
		}
	],
	"bufferViews":[
		{
			"buffer":0,
			"byteLength":111120,
			"byteOffset":0,
			"target":34962
		},
		{
			"buffer":0,
			"byteLength":111120,
			"byteOffset":111120,
			"target":34962
		},
		{
			"buffer":0,
			"byteLength":74080,
			"byteOffset":222240,
			"target":34962
		},
		{
			"buffer":0,
			"byteLength":80580,
			"byteOffset":296320,
			"target":34963
		}
	],
	"buffers":[
		{
			"byteLength":376900,
			"uri":"my-model.bin"
		}
	]
}
